<svg width="13" height="12" viewBox="0 0 13 12" fill="none" xmlns="http://www.w3.org/2000/svg">
<path d="M6.29724 7.58921C7.17494 7.58921 7.88641 6.87774 7.88641 6.00004C7.88641 5.12234 7.17494 4.41087 6.29724 4.41087C5.41954 4.41087 4.70807 5.12234 4.70807 6.00004C4.70807 6.87774 5.41954 7.58921 6.29724 7.58921Z" stroke="#292D32" stroke-width="0.904236" stroke-miterlimit="10" stroke-linecap="round" stroke-linejoin="round"/>
<path d="M1 6.46615V5.53383C1 4.98292 1.45027 4.52738 2.00648 4.52738C2.96528 4.52738 3.35727 3.84933 2.87522 3.01767C2.59977 2.54091 2.76398 1.92114 3.24603 1.64568L4.16245 1.12125C4.58093 0.872284 5.12125 1.02061 5.37022 1.43909L5.42849 1.53974C5.90524 2.3714 6.68923 2.3714 7.17128 1.53974L7.22955 1.43909C7.47852 1.02061 8.01884 0.872284 8.43732 1.12125L9.35374 1.64568C9.83579 1.92114 10 2.54091 9.72455 3.01767C9.2425 3.84933 9.6345 4.52738 10.5933 4.52738C11.1442 4.52738 11.5998 4.97762 11.5998 5.53383V6.46615C11.5998 7.01706 11.1495 7.47262 10.5933 7.47262C9.6345 7.47262 9.2425 8.15067 9.72455 8.98233C10 9.46438 9.83579 10.0789 9.35374 10.3543L8.43732 10.8787C8.01884 11.1277 7.47852 10.9794 7.22955 10.5609L7.17128 10.4603C6.69453 9.6286 5.91054 9.6286 5.42849 10.4603L5.37022 10.5609C5.12125 10.9794 4.58093 11.1277 4.16245 10.8787L3.24603 10.3543C2.76398 10.0789 2.59977 9.45909 2.87522 8.98233C3.35727 8.15067 2.96528 7.47262 2.00648 7.47262C1.45027 7.47262 1 7.01706 1 6.46615Z" stroke="#292D32" stroke-width="0.904236" stroke-miterlimit="10" stroke-linecap="round" stroke-linejoin="round"/>
</svg>
