<svg width="23" height="23" viewBox="0 0 23 23" fill="none" xmlns="http://www.w3.org/2000/svg">
    <path d="M11.4852 12.9746C11.4641 12.9746 11.4324 12.9746 11.4112 12.9746C11.3795 12.9746 11.3373 12.9746 11.3056 12.9746C8.90718 12.9007 7.11105 11.0306 7.11105 8.7273C7.11105 6.38177 9.0234 4.46942 11.369 4.46942C13.7145 4.46942 15.6268 6.38177 15.6268 8.7273C15.6163 11.0412 13.8096 12.9007 11.5169 12.9746C11.4957 12.9746 11.4957 12.9746 11.4852 12.9746ZM11.3584 6.04367C9.87923 6.04367 8.68531 7.24813 8.68531 8.71673C8.68531 10.1642 9.81584 11.337 11.2527 11.3898C11.2844 11.3792 11.3901 11.3792 11.4957 11.3898C12.9115 11.3159 14.0209 10.1537 14.0315 8.71673C14.0315 7.24813 12.8376 6.04367 11.3584 6.04367Z" fill="white"/>
    <path d="M11.3587 22.7161C8.51662 22.7161 5.8013 21.6596 3.69877 19.7366C3.50859 19.5676 3.42407 19.314 3.4452 19.071C3.58255 17.8137 4.3644 16.641 5.66395 15.7746C8.81245 13.6826 13.9156 13.6826 17.0535 15.7746C18.353 16.6515 19.1349 17.8137 19.2722 19.071C19.3039 19.3246 19.2088 19.5676 19.0187 19.7366C16.9161 21.6596 14.2008 22.7161 11.3587 22.7161ZM5.10398 18.8597C6.85784 20.3283 9.06602 21.1313 11.3587 21.1313C13.6514 21.1313 15.8596 20.3283 17.6135 18.8597C17.4233 18.2152 16.9161 17.5919 16.166 17.0847C13.5669 15.352 9.16111 15.352 6.54088 17.0847C5.79073 17.5919 5.29416 18.2152 5.10398 18.8597Z" fill="white"/>
    <path d="M11.3579 22.7157C5.09255 22.7157 0 17.6232 0 11.3579C0 5.09255 5.09255 0 11.3579 0C17.6232 0 22.7157 5.09255 22.7157 11.3579C22.7157 17.6232 17.6232 22.7157 11.3579 22.7157ZM11.3579 1.58482C5.96948 1.58482 1.58482 5.96948 1.58482 11.3579C1.58482 16.7462 5.96948 21.1309 11.3579 21.1309C16.7462 21.1309 21.1309 16.7462 21.1309 11.3579C21.1309 5.96948 16.7462 1.58482 11.3579 1.58482Z" fill="white"/>
</svg>
