<svg width="26" height="24" viewBox="0 0 26 24" fill="none" xmlns="http://www.w3.org/2000/svg">
    <path d="M12.6819 16.4122C15.1193 16.4122 17.0976 14.434 17.0976 11.9965C17.0976 9.55904 15.1193 7.58081 12.6819 7.58081C10.2444 7.58081 8.26618 9.55904 8.26618 11.9965C8.26618 14.434 10.2444 16.4122 12.6819 16.4122ZM12.6819 9.34709C14.142 9.34709 15.3313 10.5364 15.3313 11.9965C15.3313 13.4566 14.142 14.6459 12.6819 14.6459C11.2218 14.6459 10.0325 13.4566 10.0325 11.9965C10.0325 10.5364 11.2218 9.34709 12.6819 9.34709Z" fill="white"/>
    <path d="M8.90204 23.9952C9.14932 23.9952 9.3966 23.9599 9.64387 23.901C10.3739 23.7008 10.9862 23.2416 11.3748 22.594L11.5161 22.3585C12.2109 21.1574 13.1647 21.1574 13.8594 22.3585L13.9889 22.5822C14.3775 23.2416 14.9898 23.7126 15.7199 23.901C16.4617 24.1012 17.2271 23.9952 17.8747 23.6066L19.9 22.4409C20.6183 22.0287 21.1364 21.3576 21.3602 20.5451C21.5721 19.7326 21.4661 18.8965 21.054 18.1783C20.7125 17.5777 20.6183 17.0361 20.8185 16.6946C21.0187 16.3531 21.525 16.1529 22.2198 16.1529C23.9389 16.1529 25.3402 14.7517 25.3402 13.0325V10.9601C25.3402 9.2409 23.9389 7.83966 22.2198 7.83966C21.525 7.83966 21.0187 7.63948 20.8185 7.298C20.6183 6.95652 20.7008 6.41486 21.054 5.81433C21.4661 5.09604 21.5721 4.24823 21.3602 3.44752C21.1482 2.63503 20.6301 1.96385 19.9 1.55172L17.8629 0.385974C16.5324 -0.402962 14.7778 0.0562693 13.9771 1.41041L13.8358 1.64592C13.1411 2.84699 12.1873 2.84699 11.4926 1.64592L11.363 1.42219C10.5623 0.0562693 8.80784 -0.402962 7.46547 0.397749L5.44014 1.56349C4.72185 1.97562 4.20374 2.64681 3.98002 3.45929C3.76806 4.27178 3.87404 5.10782 4.28617 5.8261C4.62765 6.42664 4.72185 6.9683 4.52167 7.30978C4.3215 7.65126 3.81516 7.85143 3.12043 7.85143C1.40125 7.85143 6.71844e-06 9.25268 6.71844e-06 10.9719V13.0443C6.71844e-06 14.7635 1.40125 16.1647 3.12043 16.1647C3.81516 16.1647 4.3215 16.3649 4.52167 16.7064C4.72185 17.0478 4.63943 17.5895 4.28617 18.19C3.87404 18.9083 3.75629 19.7561 3.98002 20.5568C4.19197 21.3693 4.71008 22.0405 5.44014 22.4527L7.47724 23.6184C7.9247 23.8657 8.40748 23.9952 8.90204 23.9952ZM12.6819 19.6384C11.6339 19.6384 10.6565 20.2978 9.98535 21.4635L9.85583 21.6873C9.71453 21.9345 9.47902 22.1112 9.19642 22.1818C8.91381 22.2525 8.63121 22.2171 8.39571 22.0758L6.3586 20.8983C6.05245 20.7217 5.81694 20.4273 5.72274 20.0741C5.62854 19.7208 5.67564 19.3558 5.85227 19.0496C6.52345 17.8957 6.60588 16.7064 6.08777 15.7997C5.56966 14.893 4.49812 14.3749 3.15575 14.3749C2.40214 14.3749 1.80161 13.7743 1.80161 13.0207V10.9483C1.80161 10.2065 2.40214 9.59416 3.15575 9.59416C4.49812 9.59416 5.56966 9.07605 6.08777 8.16936C6.60588 7.26268 6.52345 6.07338 5.85227 4.91942C5.67564 4.61326 5.62854 4.24823 5.72274 3.89498C5.81694 3.54172 6.04067 3.25912 6.34683 3.07071L8.38393 1.90497C8.89026 1.59882 9.56145 1.77544 9.8676 2.29355L9.99713 2.51728C10.6683 3.68302 11.6457 4.34243 12.6936 4.34243C13.7416 4.34243 14.719 3.68302 15.3902 2.51728L15.5197 2.28178C15.8141 1.78722 16.4735 1.61059 16.9798 1.90497L19.0169 3.08249C19.3231 3.25912 19.5586 3.5535 19.6528 3.90675C19.747 4.26001 19.6999 4.62504 19.5232 4.93119C18.8521 6.08516 18.7696 7.27445 19.2877 8.18114C19.8058 9.08783 20.8774 9.60594 22.2198 9.60594C22.9734 9.60594 23.5739 10.2065 23.5739 10.9601V13.0325C23.5739 13.7743 22.9734 14.3867 22.2198 14.3867C20.8774 14.3867 19.8058 14.9048 19.2877 15.8115C18.7696 16.7181 18.8521 17.9074 19.5232 19.0614C19.6999 19.3676 19.747 19.7326 19.6528 20.0858C19.5586 20.4391 19.3348 20.7217 19.0287 20.9101L16.9916 22.0758C16.7443 22.2289 16.4499 22.2642 16.1791 22.1936C15.8965 22.1229 15.661 21.9345 15.5079 21.6873L15.3784 21.4635C14.7072 20.3096 13.7299 19.6384 12.6819 19.6384Z" fill="white"/>
</svg>
