<svg width="29" height="27" viewBox="0 0 29 27" fill="none" xmlns="http://www.w3.org/2000/svg">
    <path d="M18.697 27H18.5168C12.3624 27 9.39611 24.6996 8.88324 19.5467C8.82779 19.0078 9.24363 18.5214 9.82581 18.4689C10.3803 18.4163 10.907 18.8238 10.9624 19.3627C11.3644 23.4903 13.4159 25.0282 18.5307 25.0282H18.7109C24.3524 25.0282 26.3484 23.1353 26.3484 17.7853V9.21469C26.3484 3.86465 24.3524 1.97176 18.7109 1.97176H18.5307C13.3882 1.97176 11.3367 3.53602 10.9624 7.74245C10.8931 8.28139 10.408 8.68889 9.82581 8.63631C9.24363 8.59688 8.8278 8.11051 8.86938 7.57156C9.34066 2.33982 12.3208 0 18.5168 0H18.697C25.5029 0 28.4138 2.76046 28.4138 9.21469V17.7853C28.4138 24.2395 25.5029 27 18.697 27Z" fill="white"/>
    <path d="M18.3623 14.486H2.58818C2.01987 14.486 1.54858 14.039 1.54858 13.5001C1.54858 12.9611 2.01987 12.5142 2.58818 12.5142H18.3623C18.9306 12.5142 19.4018 12.9611 19.4018 13.5001C19.4018 14.039 18.9306 14.486 18.3623 14.486Z" fill="white"/>
    <path d="M5.67966 18.8896C5.41629 18.8896 5.15293 18.7976 4.94501 18.6004L0.301483 14.1968C-0.100494 13.8156 -0.100494 13.1847 0.301483 12.8035L4.94501 8.39986C5.34699 8.01865 6.01233 8.01865 6.4143 8.39986C6.81628 8.78106 6.81628 9.41203 6.4143 9.79324L2.50543 13.5002L6.4143 17.2071C6.81628 17.5883 6.81628 18.2192 6.4143 18.6004C6.22025 18.7976 5.94302 18.8896 5.67966 18.8896Z" fill="white"/>
</svg>
